<?xml version="1.0" encoding="UTF-8"?>
<!DOCTYPE svg PUBLIC "-//W3C//DTD SVG 1.1//EN" "http://www.w3.org/Graphics/SVG/1.1/DTD/svg11.dtd">
<svg xmlns="http://www.w3.org/2000/svg" version="1.1" width="200px" height="200px" style="shape-rendering:geometricPrecision; text-rendering:geometricPrecision; image-rendering:optimizeQuality; fill-rule:evenodd; clip-rule:evenodd" xmlns:xlink="http://www.w3.org/1999/xlink">
<g><path style="opacity:1" fill="#fcfdfd" d="M -0.5,-0.5 C 66.1667,-0.5 132.833,-0.5 199.5,-0.5C 199.5,66.1667 199.5,132.833 199.5,199.5C 132.833,199.5 66.1667,199.5 -0.5,199.5C -0.5,132.833 -0.5,66.1667 -0.5,-0.5 Z"/></g>
<g><path style="opacity:1" fill="#4b79db" d="M 15.5,119.5 C 17.8316,126.519 20.4982,133.519 23.5,140.5C 22.2794,139.972 21.1127,139.305 20,138.5C 17.4329,132.439 15.9329,126.105 15.5,119.5 Z"/></g>
<g><path style="opacity:1" fill="#316cf3" d="M 195.5,100.5 C 196.806,103.687 196.806,107.02 195.5,110.5C 194.109,109.355 192.776,109.355 191.5,110.5C 193.754,114.181 194.754,118.181 194.5,122.5C 193.5,122.5 192.5,122.5 191.5,122.5C 191.649,121.448 191.483,120.448 191,119.5C 190.818,122.226 190.318,124.893 189.5,127.5C 185.91,130.52 185.577,133.854 188.5,137.5C 187.634,138.851 186.634,139.684 185.5,140C 186.148,141.44 186.481,142.94 186.5,144.5C 185,148.173 183,151.506 180.5,154.5C 178.8,154.374 177.3,153.707 176,152.5C 171.874,154.24 171.04,153.574 173.5,150.5C 172.726,149.289 171.893,149.289 171,150.5C 170.536,149.906 170.369,149.239 170.5,148.5C 171.789,146.752 173.289,146.419 175,147.5C 174.805,145.874 174.805,144.207 175,142.5C 175.414,142.957 175.914,143.291 176.5,143.5C 177.728,140.929 179.728,139.595 182.5,139.5C 183.548,134.909 185.215,130.576 187.5,126.5C 185.278,124.107 184.278,121.273 184.5,118C 185.069,114.183 185.403,110.349 185.5,106.5C 188.798,104.515 192.131,102.515 195.5,100.5 Z"/></g>
<g><path style="opacity:1" fill="#386eee" d="M 109.5,1.5 C 141.908,5.12248 166.741,20.7891 184,48.5C 197.688,71.9981 201.355,96.9981 195,123.5C 192.913,130.899 190.08,137.899 186.5,144.5C 186.481,142.94 186.148,141.44 185.5,140C 186.634,139.684 187.634,138.851 188.5,137.5C 185.577,133.854 185.91,130.52 189.5,127.5C 190.318,124.893 190.818,122.226 191,119.5C 191.483,120.448 191.649,121.448 191.5,122.5C 192.5,122.5 193.5,122.5 194.5,122.5C 194.754,118.181 193.754,114.181 191.5,110.5C 192.776,109.355 194.109,109.355 195.5,110.5C 196.806,107.02 196.806,103.687 195.5,100.5C 195.586,99.5041 195.252,98.6708 194.5,98C 191.222,96.3525 188.055,94.5192 185,92.5C 177.916,47.0827 151.749,20.5827 106.5,13C 104.444,10.3859 102.777,7.55254 101.5,4.5C 101.5,3.5 101.5,2.5 101.5,1.5C 104.167,1.5 106.833,1.5 109.5,1.5 Z"/></g>
<g><path style="opacity:1" fill="#376eee" d="M 96.5,5.5 C 95.3065,8.05243 93.9732,10.5524 92.5,13C 56.2464,18.0342 31.4131,37.5342 18,71.5C 15.87,78.3525 14.5366,85.3525 14,92.5C 9.91674,94.4567 6.08341,96.79 2.5,99.5C 5.83691,102.171 9.50358,104.337 13.5,106C 14.3802,107.356 14.7135,108.856 14.5,110.5C 14.9629,113.482 15.2962,116.482 15.5,119.5C 15.9329,126.105 17.4329,132.439 20,138.5C 21.1127,139.305 22.2794,139.972 23.5,140.5C 38.7892,167.158 61.7892,182.324 92.5,186C 94.4257,189.076 96.0924,192.242 97.5,195.5C 93.6273,197.43 89.294,198.097 84.5,197.5C 47.1785,190.683 21.3452,169.683 7,134.5C -7.78036,84.1663 6.05297,43.9996 48.5,14C 58.743,7.87292 69.743,4.03959 81.5,2.5C 86.4932,2.08426 91.4932,1.75092 96.5,1.5C 96.5,2.83333 96.5,4.16667 96.5,5.5 Z"/></g>
<g><path style="opacity:1" fill="#fdfefd" d="M 101.5,4.5 C 102.777,7.55254 104.444,10.3859 106.5,13C 151.749,20.5827 177.916,47.0827 185,92.5C 188.055,94.5192 191.222,96.3525 194.5,98C 195.252,98.6708 195.586,99.5041 195.5,100.5C 192.131,102.515 188.798,104.515 185.5,106.5C 184.153,112.91 182.487,119.243 180.5,125.5C 180.179,124.183 179.846,122.849 179.5,121.5C 180.758,117.287 181.758,113.287 182.5,109.5C 181.405,105.865 180.071,105.698 178.5,109C 180.211,110.133 180.711,111.633 180,113.5C 179.29,112.027 178.124,111.36 176.5,111.5C 176.784,109.585 176.451,107.919 175.5,106.5C 142.498,91.1258 112.165,95.1258 84.5,118.5C 75.1851,110.509 64.5184,105.176 52.5,102.5C 50.3432,101.593 48.0098,100.927 45.5,100.5C 45.3893,99.8826 45.056,99.3826 44.5,99C 36.8406,98.5003 29.1739,98.3336 21.5,98.5C 21.335,101.85 21.5017,105.183 22,108.5C 23.0674,109.191 24.2341,109.691 25.5,110C 23.3485,110.265 21.6819,111.265 20.5,113C 21.5472,114.578 21.5472,116.078 20.5,117.5C 18.8749,115.079 17.5415,112.413 16.5,109.5C 15.8165,109.863 15.1499,110.196 14.5,110.5C 14.7135,108.856 14.3802,107.356 13.5,106C 9.50358,104.337 5.83691,102.171 2.5,99.5C 6.08341,96.79 9.91674,94.4567 14,92.5C 14.5366,85.3525 15.87,78.3525 18,71.5C 31.4131,37.5342 56.2464,18.0342 92.5,13C 93.9732,10.5524 95.3065,8.05243 96.5,5.5C 97.8287,2.3055 99.4954,1.97217 101.5,4.5 Z"/></g>
<g><path style="opacity:1" fill="#326cf1" d="M 23.5,100.5 C 33.3306,100.466 42.9973,101.133 52.5,102.5C 49.4933,105.165 45.8266,106.498 41.5,106.5C 35.2671,105.797 28.9338,105.13 22.5,104.5C 22.2322,102.901 22.5655,101.568 23.5,100.5 Z"/></g>
<g><path style="opacity:1" fill="#567fe9" d="M 23.5,100.5 C 30.6844,99.2983 38.0177,99.2983 45.5,100.5C 48.0098,100.927 50.3432,101.593 52.5,102.5C 42.9973,101.133 33.3306,100.466 23.5,100.5 Z"/></g>
<g><path style="opacity:1" fill="#5176d1" d="M 109.5,1.5 C 106.833,1.5 104.167,1.5 101.5,1.5C 101.5,2.5 101.5,3.5 101.5,4.5C 99.4954,1.97217 97.8287,2.3055 96.5,5.5C 96.5,4.16667 96.5,2.83333 96.5,1.5C 91.4932,1.75092 86.4932,2.08426 81.5,2.5C 86.9248,1.01575 92.5915,0.349085 98.5,0.5C 102.349,0.501313 106.016,0.834646 109.5,1.5 Z"/></g>
<g><path style="opacity:1" fill="#3c72e9" d="M 185.5,106.5 C 185.403,110.349 185.069,114.183 184.5,118C 184.278,121.273 185.278,124.107 187.5,126.5C 185.215,130.576 183.548,134.909 182.5,139.5C 179.728,139.595 177.728,140.929 176.5,143.5C 175.914,143.291 175.414,142.957 175,142.5C 174.805,144.207 174.805,145.874 175,147.5C 173.289,146.419 171.789,146.752 170.5,148.5C 174.987,141.385 178.32,133.719 180.5,125.5C 182.487,119.243 184.153,112.91 185.5,106.5 Z"/></g>
<g><path style="opacity:1" fill="#f8fbfb" d="M 45.5,100.5 C 38.0177,99.2983 30.6844,99.2983 23.5,100.5C 22.5655,101.568 22.2322,102.901 22.5,104.5C 28.412,106.456 34.7453,107.123 41.5,106.5C 55.8471,108.339 68.5137,114.006 79.5,123.5C 77.8076,125.359 76.3076,127.359 75,129.5C 65.5347,121.685 54.7013,117.018 42.5,115.5C 36.3554,114.51 30.0221,114.177 23.5,114.5C 23.2627,115.791 23.596,116.791 24.5,117.5C 24.5,118.167 24.5,118.833 24.5,119.5C 29.0557,121.442 34.0557,122.108 39.5,121.5C 51.5154,122.716 61.8488,127.382 70.5,135.5C 69.4196,137.996 68.0862,140.33 66.5,142.5C 58.7393,135.799 49.7393,131.799 39.5,130.5C 36.0381,129.518 32.3714,129.185 28.5,129.5C 28.2627,130.791 28.596,131.791 29.5,132.5C 29.5106,134.017 30.1772,135.184 31.5,136C 43.6281,136.261 54.1281,140.428 63,148.5C 63.3476,151.602 62.8476,154.602 61.5,157.5C 54.6702,150.085 46.3369,145.918 36.5,145C 40.6539,150.749 45.9872,155.082 52.5,158C 55.3773,162.378 59.044,165.878 63.5,168.5C 64.209,169.404 65.209,169.737 66.5,169.5C 66.5,167.5 66.5,165.5 66.5,163.5C 78.2549,122.125 105.588,102.625 148.5,105C 157.915,106.766 166.915,109.599 175.5,113.5C 175.5,111.167 175.5,108.833 175.5,106.5C 176.451,107.919 176.784,109.585 176.5,111.5C 178.124,111.36 179.29,112.027 180,113.5C 180.711,111.633 180.211,110.133 178.5,109C 180.071,105.698 181.405,105.865 182.5,109.5C 181.758,113.287 180.758,117.287 179.5,121.5C 179.846,122.849 180.179,124.183 180.5,125.5C 178.32,133.719 174.987,141.385 170.5,148.5C 158.702,164.721 143.369,176.054 124.5,182.5C 118.176,183.829 111.843,185.162 105.5,186.5C 104.14,189.22 102.807,191.886 101.5,194.5C 100.528,196.493 99.1951,196.826 97.5,195.5C 96.0924,192.242 94.4257,189.076 92.5,186C 61.7892,182.324 38.7892,167.158 23.5,140.5C 20.4982,133.519 17.8316,126.519 15.5,119.5C 15.2962,116.482 14.9629,113.482 14.5,110.5C 15.1499,110.196 15.8165,109.863 16.5,109.5C 17.5415,112.413 18.8749,115.079 20.5,117.5C 21.5472,116.078 21.5472,114.578 20.5,113C 21.6819,111.265 23.3485,110.265 25.5,110C 24.2341,109.691 23.0674,109.191 22,108.5C 21.5017,105.183 21.335,101.85 21.5,98.5C 29.1739,98.3336 36.8406,98.5003 44.5,99C 45.056,99.3826 45.3893,99.8826 45.5,100.5 Z"/></g>
<g><path style="opacity:1" fill="#3c70ec" d="M 98.5,169.5 C 97.5318,171.607 97.1984,173.941 97.5,176.5C 95.8333,176.5 94.1667,176.5 92.5,176.5C 92.5,173.5 92.5,170.5 92.5,167.5C 97.4267,146.742 110.427,134.242 131.5,130C 142.913,128.883 153.579,131.216 163.5,137C 165.922,138.888 165.922,140.888 163.5,143C 158.504,141.687 153.504,140.021 148.5,138C 130.004,133.83 115.171,139.33 104,154.5C 101.678,159.298 99.8444,164.298 98.5,169.5 Z"/></g>
<g><path style="opacity:1" fill="#3f72ec" d="M 78.5,174.5 C 79.7868,173.129 80.4535,171.295 80.5,169C 80.3333,167.167 80.1667,165.333 80,163.5C 79.6667,165.833 79.3333,168.167 79,170.5C 78.8078,168.423 78.3078,166.423 77.5,164.5C 76.3219,167.391 75.6553,170.391 75.5,173.5C 77.9295,142.59 94.2629,122.756 124.5,114C 141.585,111.025 157.419,113.858 172,122.5C 172.615,125.045 172.115,127.378 170.5,129.5C 141.388,112.709 115.554,116.709 93,141.5C 85.2851,151.478 81.4517,162.811 81.5,175.5C 80.209,175.737 79.209,175.404 78.5,174.5 Z"/></g>
<g><path style="opacity:1" fill="#8eabf1" d="M 39.5,130.5 C 35.6707,129.931 32.3373,130.598 29.5,132.5C 28.596,131.791 28.2627,130.791 28.5,129.5C 32.3714,129.185 36.0381,129.518 39.5,130.5 Z"/></g>
<g><path style="opacity:1" fill="#749aeb" d="M 24.5,119.5 C 29.6021,120.121 34.6021,120.787 39.5,121.5C 34.0557,122.108 29.0557,121.442 24.5,119.5 Z"/></g>
<g><path style="opacity:1" fill="#688bd5" d="M 42.5,115.5 C 36.0738,114.88 30.0738,115.547 24.5,117.5C 23.596,116.791 23.2627,115.791 23.5,114.5C 30.0221,114.177 36.3554,114.51 42.5,115.5 Z"/></g>
<g><path style="opacity:1" fill="#537bce" d="M 22.5,104.5 C 28.9338,105.13 35.2671,105.797 41.5,106.5C 34.7453,107.123 28.412,106.456 22.5,104.5 Z"/></g>
<g><path style="opacity:1" fill="#3c70ec" d="M 175.5,106.5 C 175.5,108.833 175.5,111.167 175.5,113.5C 166.915,109.599 157.915,106.766 148.5,105C 105.588,102.625 78.2549,122.125 66.5,163.5C 66.0276,165.531 65.0276,167.198 63.5,168.5C 59.044,165.878 55.3773,162.378 52.5,158C 45.9872,155.082 40.6539,150.749 36.5,145C 46.3369,145.918 54.6702,150.085 61.5,157.5C 62.8476,154.602 63.3476,151.602 63,148.5C 54.1281,140.428 43.6281,136.261 31.5,136C 30.1772,135.184 29.5106,134.017 29.5,132.5C 32.3373,130.598 35.6707,129.931 39.5,130.5C 49.7393,131.799 58.7393,135.799 66.5,142.5C 68.0862,140.33 69.4196,137.996 70.5,135.5C 61.8488,127.382 51.5154,122.716 39.5,121.5C 34.6021,120.787 29.6021,120.121 24.5,119.5C 24.5,118.833 24.5,118.167 24.5,117.5C 30.0738,115.547 36.0738,114.88 42.5,115.5C 54.7013,117.018 65.5347,121.685 75,129.5C 76.3076,127.359 77.8076,125.359 79.5,123.5C 68.5137,114.006 55.8471,108.339 41.5,106.5C 45.8266,106.498 49.4933,105.165 52.5,102.5C 64.5184,105.176 75.1851,110.509 84.5,118.5C 112.165,95.1258 142.498,91.1258 175.5,106.5 Z"/></g>
<g><path style="opacity:1" fill="#3d6feb" d="M 132.5,147.5 C 140.022,146.651 147.022,148.151 153.5,152C 154.207,154.691 153.041,156.525 150,157.5C 132.385,150.867 120.885,156.534 115.5,174.5C 110.214,177.596 108.381,175.929 110,169.5C 114.089,158.577 121.589,151.243 132.5,147.5 Z"/></g>
<g><path style="opacity:1" fill="#6085cb" d="M 66.5,163.5 C 66.5,165.5 66.5,167.5 66.5,169.5C 65.209,169.737 64.209,169.404 63.5,168.5C 65.0276,167.198 66.0276,165.531 66.5,163.5 Z"/></g>
<g><path style="opacity:1" fill="#386fec" d="M 170.5,148.5 C 170.369,149.239 170.536,149.906 171,150.5C 171.893,149.289 172.726,149.289 173.5,150.5C 171.04,153.574 171.874,154.24 176,152.5C 177.3,153.707 178.8,154.374 180.5,154.5C 170.898,170.435 157.565,182.102 140.5,189.5C 140.179,187.952 139.179,187.285 137.5,187.5C 137.5,186.5 137.5,185.5 137.5,184.5C 139.981,184.323 141.814,185.323 143,187.5C 144.242,185.459 146.075,184.293 148.5,184C 146.421,181.623 144.088,180.457 141.5,180.5C 143.289,179.377 143.622,178.044 142.5,176.5C 141.751,178.012 140.584,179.012 139,179.5C 134.062,180.458 129.229,181.458 124.5,182.5C 143.369,176.054 158.702,164.721 170.5,148.5 Z"/></g>
<g><path style="opacity:1" fill="#336bf6" d="M 78.5,174.5 C 77.609,173.89 76.609,173.557 75.5,173.5C 75.6553,170.391 76.3219,167.391 77.5,164.5C 78.3078,166.423 78.8078,168.423 79,170.5C 79.3333,168.167 79.6667,165.833 80,163.5C 80.1667,165.333 80.3333,167.167 80.5,169C 80.4535,171.295 79.7868,173.129 78.5,174.5 Z"/></g>
<g><path style="opacity:1" fill="#6d8ede" d="M 92.5,167.5 C 92.5,170.5 92.5,173.5 92.5,176.5C 94.1667,176.5 95.8333,176.5 97.5,176.5C 97.1984,173.941 97.5318,171.607 98.5,169.5C 98.5,172.167 98.5,174.833 98.5,177.5C 96.1667,177.5 93.8333,177.5 91.5,177.5C 91.1872,173.958 91.5206,170.625 92.5,167.5 Z"/></g>
<g><path style="opacity:1" fill="#306cf3" d="M 140.5,189.5 C 140.167,189.5 139.833,189.5 139.5,189.5C 136.518,188.594 133.685,187.26 131,185.5C 130.5,185.833 130,186.167 129.5,186.5C 132.269,189.631 131.602,191.631 127.5,192.5C 127.378,188.162 127.045,187.828 126.5,191.5C 121.537,192.496 116.537,192.663 111.5,192C 109.519,191.395 109.185,190.395 110.5,189C 109.062,188.781 107.729,188.281 106.5,187.5C 112.951,186.559 118.951,184.893 124.5,182.5C 129.229,181.458 134.062,180.458 139,179.5C 140.584,179.012 141.751,178.012 142.5,176.5C 143.622,178.044 143.289,179.377 141.5,180.5C 144.088,180.457 146.421,181.623 148.5,184C 146.075,184.293 144.242,185.459 143,187.5C 141.814,185.323 139.981,184.323 137.5,184.5C 137.5,185.5 137.5,186.5 137.5,187.5C 139.179,187.285 140.179,187.952 140.5,189.5 Z"/></g>
<g><path style="opacity:1" fill="#3970ea" d="M 124.5,182.5 C 118.951,184.893 112.951,186.559 106.5,187.5C 107.729,188.281 109.062,188.781 110.5,189C 109.185,190.395 109.519,191.395 111.5,192C 116.537,192.663 121.537,192.496 126.5,191.5C 127.045,187.828 127.378,188.162 127.5,192.5C 131.602,191.631 132.269,189.631 129.5,186.5C 130,186.167 130.5,185.833 131,185.5C 133.685,187.26 136.518,188.594 139.5,189.5C 131.429,193.691 122.762,196.358 113.5,197.5C 109.818,197.665 106.152,197.499 102.5,197C 101.748,196.329 101.414,195.496 101.5,194.5C 102.807,191.886 104.14,189.22 105.5,186.5C 111.843,185.162 118.176,183.829 124.5,182.5 Z"/></g>
<g><path style="opacity:1" fill="#5f7fcf" d="M 101.5,194.5 C 101.414,195.496 101.748,196.329 102.5,197C 106.152,197.499 109.818,197.665 113.5,197.5C 103.833,198.833 94.1667,198.833 84.5,197.5C 89.294,198.097 93.6273,197.43 97.5,195.5C 99.1951,196.826 100.528,196.493 101.5,194.5 Z"/></g>
</svg>
